<svg width="24" height="24" viewBox="0 0 24 24" fill="none" xmlns="http://www.w3.org/2000/svg">
<g clip-path="url(#clip0_110_156)">
<path d="M2.50001 21.5L3.90001 20.1M20.1 3.9L21.5 2.5M9.60001 14.4L14.4 9.6M17.596 12.768C17.9712 13.1431 18.48 13.3539 19.0105 13.3539C19.541 13.3539 20.0499 13.1431 20.425 12.768C20.8002 12.3928 21.0109 11.884 21.0109 11.3535C21.0109 10.823 20.8002 10.3141 20.425 9.939L18.657 8.172C19.0322 8.54702 19.5409 8.75764 20.0714 8.75755C20.334 8.7575 20.5941 8.70573 20.8367 8.60517C21.0794 8.50462 21.2998 8.35725 21.4855 8.1715C21.6712 7.98574 21.8185 7.76523 21.9189 7.52256C22.0194 7.27988 22.0711 7.0198 22.0711 6.75715C22.071 6.49449 22.0192 6.23443 21.9187 5.99179C21.8181 5.74915 21.6708 5.52869 21.485 5.343L18.657 2.515C18.282 2.13985 17.7733 1.92904 17.2429 1.92895C16.7124 1.92885 16.2037 2.13948 15.8285 2.5145C15.4534 2.88952 15.2425 3.3982 15.2425 3.92865C15.2424 4.45909 15.453 4.96785 15.828 5.343L14.061 3.575C13.8753 3.38924 13.6547 3.2419 13.412 3.14137C13.1693 3.04084 12.9092 2.98909 12.6465 2.98909C12.3838 2.98909 12.1237 3.04084 11.881 3.14137C11.6383 3.2419 11.4178 3.38924 11.232 3.575C11.0463 3.76075 10.8989 3.98128 10.7984 4.22398C10.6978 4.46668 10.6461 4.7268 10.6461 4.9895C10.6461 5.2522 10.6978 5.51232 10.7984 5.75502C10.8989 5.99772 11.0463 6.21824 11.232 6.404L17.596 12.768ZM5.34301 21.485C5.71802 21.8601 6.22671 22.071 6.75715 22.071C7.0198 22.0711 7.27989 22.0194 7.52257 21.9189C7.76524 21.8185 7.98575 21.6712 8.17151 21.4855C8.35726 21.2998 8.50462 21.0794 8.60518 20.8367C8.70573 20.5941 8.75751 20.334 8.75756 20.0714C8.7576 19.8087 8.70592 19.5486 8.60545 19.3059C8.50498 19.0633 8.3577 18.8428 8.17201 18.657L9.93901 20.425C10.3142 20.8001 10.823 21.0109 11.3535 21.0109C11.884 21.0109 12.3929 20.8001 12.768 20.425C13.1432 20.0498 13.3539 19.541 13.3539 19.0105C13.3539 18.48 13.1432 17.9711 12.768 17.596L6.40401 11.232C6.21825 11.0462 5.99773 10.8989 5.75503 10.7984C5.51233 10.6978 5.2522 10.6461 4.98951 10.6461C4.72681 10.6461 4.46669 10.6978 4.22398 10.7984C3.98128 10.8989 3.76076 11.0462 3.57501 11.232C3.38925 11.4178 3.2419 11.6383 3.14137 11.881C3.04084 12.1237 2.9891 12.3838 2.9891 12.6465C2.9891 12.9092 3.04084 13.1693 3.14137 13.412C3.2419 13.6547 3.38925 13.8752 3.57501 14.061L5.34301 15.828C4.96786 15.453 4.4591 15.2424 3.92865 15.2424C3.39821 15.2425 2.88952 15.4534 2.51451 15.8285C2.13949 16.2036 1.92886 16.7124 1.92896 17.2429C1.92905 17.7733 2.13986 18.282 2.51501 18.657L5.34301 21.485Z" stroke="currentColor" stroke-width="2" stroke-linecap="round" stroke-linejoin="round"/>
</g>
<defs>
<clipPath id="clip0_110_156">
<rect width="24" height="24" fill="white"/>
</clipPath>
</defs>
</svg>
